<svg xmlns="http://www.w3.org/2000/svg" xmlns:xlink="http://www.w3.org/1999/xlink" fill="none" version="1.1" width="26" height="20" viewBox="0 0 26 20"><defs><filter id="master_svg0_39_53688" filterUnits="objectBoundingBox" color-interpolation-filters="sRGB" x="-8" y="-8" width="30" height="24"><feFlood flood-opacity="0" result="BackgroundImageFix"/><feBlend mode="normal" in="SourceGraphic" in2="BackgroundImageFix" result="shape"/><feGaussianBlur stdDeviation="2" result="effect1_foregroundBlur"/></filter></defs><g transform="matrix(0,1,-1,0,23,-21.5)"><g transform="matrix(0,1,1,0,24.5,-24.5)" filter="url(#master_svg0_39_53688)"><path d="M29.5,5L31.5,5L31.5,7L29.5,7L29.5,5ZM27.5,3L29.5,3L29.5,5L27.5,5L27.5,3ZM39.5,3L41.5,3L41.5,5L39.5,5L39.5,3ZM31.5,7L33.5,7L33.5,9L31.5,9L31.5,7ZM33.5,9L35.5,9L35.5,11L33.5,11L33.5,9ZM35.5,7L37.5,7L37.5,9L35.5,9L35.5,7ZM37.5,5L39.5,5L39.5,7L37.5,7L37.5,5Z" fill="#FFC300" fill-opacity="1"/></g><g transform="matrix(0,1,1,0,24.5,-24.5)"><path d="M29.5,5L31.5,5L31.5,7L29.5,7L29.5,5ZM27.5,3L29.5,3L29.5,5L27.5,5L27.5,3ZM39.5,3L41.5,3L41.5,5L39.5,5L39.5,3ZM31.5,7L33.5,7L33.5,9L31.5,9L31.5,7ZM33.5,9L35.5,9L35.5,11L33.5,11L33.5,9ZM35.5,7L37.5,7L37.5,9L35.5,9L35.5,7ZM37.5,5L39.5,5L39.5,7L37.5,7L37.5,5Z" fill="#FFC300" fill-opacity="1"/></g></g></svg>