<svg xmlns="http://www.w3.org/2000/svg" xmlns:xlink="http://www.w3.org/1999/xlink" fill="none" version="1.1" width="24" height="24" viewBox="0 0 24 24"><g><g><path d="M2,12.5L4.5,12.5L4.5,15L2,15L2,12.5ZM4.5,15L7,15L7,17.5L4.5,17.5L4.5,15ZM7,17.5L9.5,17.5L9.5,20L7,20L7,17.5ZM17,10L14.5,10L14.5,12.5L17,12.5L17,10ZM19.5,7.5L17,7.5L17,10L19.5,10L19.5,7.5ZM22,5L19.5,5L19.5,7.5L22,7.5L22,5ZM14.5,12.5L12,12.5L12,15L14.5,15L14.5,12.5ZM12,15L9.5,15L9.5,17.5L12,17.5L12,15Z" fill="#00B578" fill-opacity="1"/></g></g></svg>