<svg xmlns="http://www.w3.org/2000/svg" xmlns:xlink="http://www.w3.org/1999/xlink" fill="none" version="1.1" width="20" height="20" viewBox="0 0 20 20"><g><g><path d="M5,5L7,5L7,7L5,7L5,5ZM3,3L5,3L5,5L3,5L3,3ZM3,15L5,15L5,17L3,17L3,15ZM15,15L17,15L17,17L15,17L15,15ZM7,7L9,7L9,9L7,9L7,7ZM9,9L11,9L11,11L9,11L9,9ZM11,11L13,11L13,13L11,13L11,11ZM13,12.99998L15,12.99998L15,15L13,15L13,12.99998ZM15,5L13,5L13,7L15,7L15,5ZM17,3L15,3L15,5L17,5L17,3ZM13,7L11,7L11,9L13,9L13,7ZM9,11L7,11L7,13L9,13L9,11ZM7,12.99998L5,12.99998L5,15L7,15L7,12.99998Z" fill="#FFFFFF" fill-opacity="1"/></g></g></svg>