<svg xmlns="http://www.w3.org/2000/svg" xmlns:xlink="http://www.w3.org/1999/xlink" fill="none" version="1.1" width="24" height="24" viewBox="0 0 24 24"><defs><clipPath id="master_svg0_316_76675"><rect x="0" y="0" width="24" height="24" rx="0"/></clipPath></defs><g clip-path="url(#master_svg0_316_76675)"><g><ellipse cx="12" cy="12" rx="12" ry="12" fill="#212326" fill-opacity="1"/></g><g><path d="M10,8C10.36819,8,10.66667,8.298477,10.66667,8.666667C10.66667,9.03486,10.36819,9.33333,10,9.33333L8,9.33333C6.5532,9.33331,5.37031,10.48697,5.33413,11.93331C5.29795,13.379660000000001,6.42168,14.59101,7.86667,14.66333L8,14.66667L10,14.66667C10.36819,14.66667,10.66667,14.96514,10.66667,15.33333C10.66667,15.70152,10.36819,16,10,16L8,16C5.79086,16,4,14.20914,4,12C4,9.79086,5.79086,8,8,8L10,8ZM16,8C18.2091,8,20,9.79086,20,12C20,14.20914,18.2091,16,16,16L14,16C13.63181,16,13.33333,15.70152,13.33333,15.33333C13.33333,14.96514,13.63181,14.66667,14,14.66667L16,14.66667C17.4728,14.66667,18.6667,13.472760000000001,18.6667,12C18.6667,10.527239999999999,17.4728,9.33333,16,9.33333L14,9.33333C13.63181,9.33333,13.33333,9.03486,13.33333,8.666667C13.33333,8.298477,13.63181,8,14,8L16,8ZM14.6667,11.33333C15.0349,11.33333,15.3333,11.63181,15.3333,12C15.3333,12.36819,15.0349,12.66667,14.6667,12.66667L9.33333,12.66667C8.96514,12.66667,8.66667,12.36819,8.66667,12C8.66667,11.63181,8.96514,11.33333,9.33333,11.33333L14.6667,11.33333Z" fill="#ADAEAE" fill-opacity="1"/></g></g></svg>