<svg xmlns="http://www.w3.org/2000/svg" xmlns:xlink="http://www.w3.org/1999/xlink" fill="none" version="1.1" width="24" height="24" viewBox="0 0 24 24"><defs><filter id="master_svg0_287_042223" filterUnits="objectBoundingBox" color-interpolation-filters="sRGB" x="-4" y="-4" width="26" height="26"><feFlood flood-opacity="0" result="BackgroundImageFix"/><feBlend mode="normal" in="SourceGraphic" in2="BackgroundImageFix" result="shape"/><feGaussianBlur stdDeviation="1" result="effect1_foregroundBlur"/></filter></defs><g><g filter="url(#master_svg0_287_042223)"><g></g><g><path d="M12.649500634765625,5.25002803515625L19.794000634765624,17.62506103515625C20.082700634765626,18.12506103515625,19.721800634765625,18.75006103515625,19.144500634765627,18.75006103515625L4.855500634765625,18.75006103515625C4.278158634765625,18.75006103515625,3.917329634765625,18.12506103515625,4.206000634765625,17.62506103515625L11.350500634765625,5.25002803515625C11.639180634765625,4.75007203515625,12.360820634765625,4.75007203515625,12.649500634765625,5.25002803515625ZM11.250000634765625,15.00006103515625L11.250000634765625,16.50006103515625L12.750000634765625,16.50006103515625L12.750000634765625,15.00006103515625L11.250000634765625,15.00006103515625ZM11.250000634765625,9.750031035156251L11.250000634765625,13.50003103515625L12.750000634765625,13.50003103515625L12.750000634765625,9.750031035156251L11.250000634765625,9.750031035156251Z" fill="#FF2323" fill-opacity="1"/></g></g><g><g></g><g><path d="M12.649500634765625,5.25002803515625L19.794000634765624,17.62506103515625C20.082700634765626,18.12506103515625,19.721800634765625,18.75006103515625,19.144500634765627,18.75006103515625L4.855500634765625,18.75006103515625C4.278158634765625,18.75006103515625,3.917329634765625,18.12506103515625,4.206000634765625,17.62506103515625L11.350500634765625,5.25002803515625C11.639180634765625,4.75007203515625,12.360820634765625,4.75007203515625,12.649500634765625,5.25002803515625ZM11.250000634765625,15.00006103515625L11.250000634765625,16.50006103515625L12.750000634765625,16.50006103515625L12.750000634765625,15.00006103515625L11.250000634765625,15.00006103515625ZM11.250000634765625,9.750031035156251L11.250000634765625,13.50003103515625L12.750000634765625,13.50003103515625L12.750000634765625,9.750031035156251L11.250000634765625,9.750031035156251Z" fill="#FF2323" fill-opacity="1"/></g></g></g></svg>