<svg xmlns="http://www.w3.org/2000/svg" xmlns:xlink="http://www.w3.org/1999/xlink" fill="none" version="1.1" width="30.6666259765625" height="24" viewBox="0 0 30.6666259765625 24"><defs><filter id="master_svg0_97_57723" filterUnits="objectBoundingBox" color-interpolation-filters="sRGB" x="-8" y="-8" width="34.66666603088379" height="26.666666984558105"><feFlood flood-opacity="0" result="BackgroundImageFix"/><feBlend mode="normal" in="SourceGraphic" in2="BackgroundImageFix" result="shape"/><feGaussianBlur stdDeviation="2" result="effect1_foregroundBlur"/></filter></defs><g transform="matrix(0,1,-1,0,27.6666259765625,-27.6666259765625)"><g transform="matrix(0,1,1,0,31.6666259765625,-31.6666259765625)" filter="url(#master_svg0_97_57723)"><path d="M37.3332559765625,5.66675L39.9999159765625,5.66675L39.9999159765625,8.33342L37.3332559765625,8.33342L37.3332559765625,5.66675ZM34.6666259765625,3L37.333295976562496,3L37.333295976562496,5.66667L34.6666259765625,5.66667L34.6666259765625,3ZM50.6666259765625,3L53.3333259765625,3L53.3333259765625,5.66667L50.6666259765625,5.66667L50.6666259765625,3ZM39.9998759765625,8.33325L42.6665459765625,8.33325L42.6665459765625,10.99992L39.9998759765625,10.99992L39.9998759765625,8.33325ZM42.6666259765625,11L45.3333259765625,11L45.3333259765625,13.6667L42.6666259765625,13.6667L42.6666259765625,11ZM45.3332259765625,8.33325L47.9999259765625,8.33325L47.9999259765625,10.99992L45.3332259765625,10.99992L45.3332259765625,8.33325ZM48.0000259765625,5.66675L50.6666259765625,5.66675L50.6666259765625,8.33342L48.0000259765625,8.33342L48.0000259765625,5.66675Z" fill="#FFC300" fill-opacity="1"/></g><g transform="matrix(0,1,1,0,31.6666259765625,-31.6666259765625)"><path d="M37.3332559765625,5.66675L39.9999159765625,5.66675L39.9999159765625,8.33342L37.3332559765625,8.33342L37.3332559765625,5.66675ZM34.6666259765625,3L37.333295976562496,3L37.333295976562496,5.66667L34.6666259765625,5.66667L34.6666259765625,3ZM50.6666259765625,3L53.3333259765625,3L53.3333259765625,5.66667L50.6666259765625,5.66667L50.6666259765625,3ZM39.9998759765625,8.33325L42.6665459765625,8.33325L42.6665459765625,10.99992L39.9998759765625,10.99992L39.9998759765625,8.33325ZM42.6666259765625,11L45.3333259765625,11L45.3333259765625,13.6667L42.6666259765625,13.6667L42.6666259765625,11ZM45.3332259765625,8.33325L47.9999259765625,8.33325L47.9999259765625,10.99992L45.3332259765625,10.99992L45.3332259765625,8.33325ZM48.0000259765625,5.66675L50.6666259765625,5.66675L50.6666259765625,8.33342L48.0000259765625,8.33342L48.0000259765625,5.66675Z" fill="#FFC300" fill-opacity="1"/></g></g></svg>