<svg xmlns="http://www.w3.org/2000/svg" xmlns:xlink="http://www.w3.org/1999/xlink" fill="none" version="1.1" width="18" height="18" viewBox="0 0 18 18"><g><g></g><g><path d="M8.99999988079071,16.49999988079071C4.85774988079071,16.49999988079071,1.4999998807907104,13.142299880790711,1.4999998807907104,8.99999988079071C1.4999998807907104,4.85774988079071,4.85774988079071,1.4999998807907104,8.99999988079071,1.4999998807907104C13.142199880790711,1.4999998807907104,16.49999988079071,4.85774988079071,16.49999988079071,8.99999988079071C16.49999988079071,13.142199880790711,13.142199880790711,16.49999988079071,8.99999988079071,16.49999988079071ZM8.99999988079071,14.99999988079071C12.313699880790711,14.99999988079071,14.99999988079071,12.313699880790711,14.99999988079071,8.99999988079071C14.99999988079071,5.68628988079071,12.313699880790711,2.9999998807907104,8.99999988079071,2.9999998807907104C5.68628988079071,2.9999998807907104,2.9999998807907104,5.68628988079071,2.9999998807907104,8.99999988079071C2.9999998807907104,12.313699880790711,5.68628988079071,14.99999988079071,8.99999988079071,14.99999988079071ZM8.24999988079071,5.2499998807907104L9.74999988079071,5.2499998807907104L9.74999988079071,6.7499998807907104L8.24999988079071,6.7499998807907104L8.24999988079071,5.2499998807907104ZM8.24999988079071,8.24999988079071L9.74999988079071,8.24999988079071L9.74999988079071,12.74999988079071L8.24999988079071,12.74999988079071L8.24999988079071,8.24999988079071Z" fill="#000000" fill-opacity="1"/></g></g></svg>