<svg xmlns="http://www.w3.org/2000/svg" xmlns:xlink="http://www.w3.org/1999/xlink" fill="none" version="1.1" width="24" height="24" viewBox="0 0 24 24"><g><g></g><g><path d="M12,22C6.477,22,2,17.523,2,12C2,6.477,6.477,2,12,2C17.523,2,22,6.477,22,12C22,17.523,17.523,22,12,22ZM12,20C16.418300000000002,20,20,16.418300000000002,20,12C20,7.58172,16.418300000000002,4,12,4C7.58172,4,4,7.58172,4,12C4,16.418300000000002,7.58172,20,12,20ZM11,7L13,7L13,9L11,9L11,7ZM11,11L13,11L13,17L11,17L11,11Z" fill="#797979" fill-opacity="1"/></g></g></svg>