<svg xmlns="http://www.w3.org/2000/svg" xmlns:xlink="http://www.w3.org/1999/xlink" fill="none" version="1.1" width="32" height="32" viewBox="0 0 32 32"><g transform="matrix(0,1,-1,0,32,-32)"><g><path d="M41.6665,13.000078247070313L44.33317,13.000078247070313L44.33317,15.666748247070313L41.6665,15.666748247070313L41.6665,13.000078247070313ZM39,10.333328247070312L41.666669999999996,10.333328247070312L41.666669999999996,12.999998247070312L39,12.999998247070312L39,10.333328247070312ZM55,10.333328247070312L57.6667,10.333328247070312L57.6667,12.999998247070312L55,12.999998247070312L55,10.333328247070312ZM44.3335,15.666578247070312L47.00016,15.666578247070312L47.00016,18.333248247070312L44.3335,18.333248247070312L44.3335,15.666578247070312ZM47,18.333328247070312L49.6667,18.333328247070312L49.6667,21.00002824707031L47,21.00002824707031L47,18.333328247070312ZM49.6665,15.666578247070312L52.3332,15.666578247070312L52.3332,18.333248247070312L49.6665,18.333248247070312L49.6665,15.666578247070312ZM52.3335,13.000078247070313L55.0002,13.000078247070313L55.0002,15.666748247070313L52.3335,15.666748247070313L52.3335,13.000078247070313Z" fill="#FFFFFF" fill-opacity="1"/></g></g></svg>