<svg xmlns="http://www.w3.org/2000/svg" xmlns:xlink="http://www.w3.org/1999/xlink" fill="none" version="1.1" width="18" height="18" viewBox="0 0 18 18"><defs><clipPath id="master_svg0_39_86934"><rect x="18" y="0" width="18" height="18" rx="0"/></clipPath></defs><g><g transform="matrix(0,1,-1,0,18,-18)" clip-path="url(#master_svg0_39_86934)"><g><path d="M26.25,12.75006103515625L26.25,5.25006103515625L24.75009,5.25006103515625L24.75009,6.75006103515625L23.25009,6.75006103515625L23.25009,5.25006103515625L24.75007,5.25006103515625L24.75007,3.75006103515625L26.25,3.75006103515625L26.25,2.25006103515625L27.75,2.25006103515625L27.75,3.75006103515625L29.25007,3.75006103515625L29.25007,5.25006103515625L30.75,5.25006103515625L30.75,6.75006103515625L29.25,6.75006103515625L29.25,5.25006103515625L27.75,5.25006103515625L27.75,12.75006103515625L26.25,12.75006103515625ZM20.25,15.75006103515625L20.25,11.25006103515625L21.75,11.25006103515625L21.75,14.25006103515625L32.25,14.25006103515625L32.25,11.25006103515625L33.75,11.25006103515625L33.75,14.25006103515625L33.75,15.75006103515625L32.25,15.75006103515625L20.25,15.75006103515625Z" fill-rule="evenodd" fill="#FFFFFF" fill-opacity="1"/></g></g></g></svg>