<svg xmlns="http://www.w3.org/2000/svg" xmlns:xlink="http://www.w3.org/1999/xlink" fill="none" version="1.1" width="143.69102478027344" height="45.00000762939453" viewBox="0 0 143.69102478027344 45.00000762939453"><defs><filter id="master_svg0_340_36249" filterUnits="objectBoundingBox" color-interpolation-filters="sRGB" x="-16" y="-16" width="164" height="56"><feFlood flood-opacity="0" result="BackgroundImageFix"/><feBlend mode="normal" in="SourceGraphic" in2="BackgroundImageFix" result="shape"/><feGaussianBlur stdDeviation="4" result="effect1_foregroundBlur"/></filter><clipPath id="master_svg1_340_36249"><rect x="5.829006195068359" y="10.533336639404297" width="132" height="24" rx="0"/></clipPath><clipPath id="master_svg2_340_36213"><rect x="5.829006195068359" y="10.533336639404297" width="132" height="24" rx="0"/></clipPath></defs><g><g filter="url(#master_svg0_340_36249)"><g clip-path="url(#master_svg1_340_36249)"><g><path d="M48.597,21L38.829,21L40.644,15L50.412,15L50.709,13.96667L47.442,13.96667L47.838,12.633333L51.138,12.633333L51.303,12L38.301,12L34.935,23.1L47.937,23.1L48.597,21ZM48.597,21.00001L50.412,15.00001L53.646,15.00001L51.831,21.00001L48.597,21.00001ZM69.12299999999999,13.96667L57.21,13.96667L54.933,21.53333L67.935,21.53333L68.1,21L58.332,21L60.147,15L73.149,15L74.07300000000001,12L57.804,12L57.639,12.633333L69.519,12.633333L69.12299999999999,13.96667ZM80.574,12L90.309,12L89.418,15L79.65,15L80.574,12ZM105.654,15L112.155,15L112.485,13.96667L103.74,13.96667L104.136,12.633333L112.881,12.633333L113.079,12L96.81,12L95.919,15L102.42,15L101.793,17.066670000000002L105.027,17.066670000000002L105.654,15ZM119.58,12L119.382,12.633333L125.817,12.633333L125.388,13.96667L118.986,13.96667L118.656,15L128.424,15L129.348,12L119.58,12ZM16.256999999999998,13.533339999999999L16.785,12.0666714L19.392,12.0666714L18.963,13.533339999999999L16.256999999999998,13.533339999999999ZM76.416,15.00001L79.65,15.00001L79.023,17.066670000000002L75.789,17.066670000000002L76.416,15.00001ZM92.652,15.00001L89.583,25.2L86.349,25.2L89.418,15.00001L92.652,15.00001ZM114.795,17.066670000000002L117.138,17.066670000000002L116.742,18.40001L114.399,18.40001L112.353,25.2L115.587,25.2L118.656,15.00001L115.422,15.00001L114.795,17.066670000000002ZM127.533,18.00001L130.767,18.00001L131.691,15.00001L128.424,15.00001L127.533,18.00001ZM75.393,18.4L78.627,18.4L75.789,27.7667L72.555,27.7667L75.393,18.4ZM99.351,25.2L102.42,25.2L101.991,26.5333L98.922,26.5333L96.975,33L100.242,33L104.631,18.4L101.397,18.4L99.351,25.2ZM57.441,24L67.176,24L67.539,22.8667L54.537,22.8667L52.656,29.1L54.273,29.1L53.877,30.4333L52.227,30.4333L51.468,33L67.70400000000001,33L68.628,30L55.626,30L57.441,24ZM34.539,24.4333L37.806,24.4333L36.387,29.1L33.120000000000005,29.1L34.539,24.4333ZM43.515,27L44.307,24.4333L41.04,24.4333L40.281,27L43.515,27ZM43.515,27L42.888000000000005,29.1L46.122,29.1L46.782,27L43.515,27ZM16.323,32.9333L13.089,32.9333L15.135,26.1667L18.369,26.1667L16.323,32.9333ZM88.131,30L84.864,30L85.92,26.5333L89.187,26.5333L88.131,30ZM114.135,30L110.901,30L111.924,26.5333L115.191,26.5333L114.135,30L123.903,30L122.979,33L113.244,33L114.135,30ZM124.794,27L128.061,27L127.137,30L123.903,30L124.794,27ZM71.862,30L72.15899999999999,29.1L75.393,29.1L75.12899999999999,30L71.862,30ZM83.973,33L74.205,33L75.12899999999999,30L84.864,30L83.973,33ZM35.199,33L31.965,33L32.724000000000004,30.4333L35.991,30.4333L35.199,33ZM48.201,33L44.967,33L45.726,30.4333L48.993,30.4333L48.201,33ZM18.96301,13.533339999999999L18.963,13.533339999999999L18.468,15.13334L14.64001,15.13334L14.11201,16.6L20.942999999999998,16.6L20.942999999999998,15.13334L20.942999999999998,15.13334L20.942999999999998,16.60001L18.00601,16.60001L17.742,17.5L20.976010000000002,17.5L21.735010000000003,15.033339999999999L31.437,15.033339999999999L29.622,21L32.856,21L34.671,15.03333L31.437,15.03333L32.328,12.0666714L19.39201,12.0666714L18.96301,13.533339999999999ZM12,19.66667L12.297,18.83334L18.831,18.83334L18.831,19.66667L18.83101,18.83334L20.58001,18.83334L19.92001,21L29.622,21L28.731,24L19.02901,24L18.76501,24.8333L15.53101,24.8333L17.08201,19.66667L12,19.66667Z" fill-rule="evenodd" fill="#FFC300" fill-opacity="1"/></g></g></g><g clip-path="url(#master_svg2_340_36213)"><g><path d="M48.597,21L38.829,21L40.644,15L50.412,15L50.709,13.96667L47.442,13.96667L47.838,12.633333L51.138,12.633333L51.303,12L38.301,12L34.935,23.1L47.937,23.1L48.597,21ZM48.597,21.00001L50.412,15.00001L53.646,15.00001L51.831,21.00001L48.597,21.00001ZM69.12299999999999,13.96667L57.21,13.96667L54.933,21.53333L67.935,21.53333L68.1,21L58.332,21L60.147,15L73.149,15L74.07300000000001,12L57.804,12L57.639,12.633333L69.519,12.633333L69.12299999999999,13.96667ZM80.574,12L90.309,12L89.418,15L79.65,15L80.574,12ZM105.654,15L112.155,15L112.485,13.96667L103.74,13.96667L104.136,12.633333L112.881,12.633333L113.079,12L96.81,12L95.919,15L102.42,15L101.793,17.066670000000002L105.027,17.066670000000002L105.654,15ZM119.58,12L119.382,12.633333L125.817,12.633333L125.388,13.96667L118.986,13.96667L118.656,15L128.424,15L129.348,12L119.58,12ZM16.256999999999998,13.533339999999999L16.785,12.0666714L19.392,12.0666714L18.963,13.533339999999999L16.256999999999998,13.533339999999999ZM76.416,15.00001L79.65,15.00001L79.023,17.066670000000002L75.789,17.066670000000002L76.416,15.00001ZM92.652,15.00001L89.583,25.2L86.349,25.2L89.418,15.00001L92.652,15.00001ZM114.795,17.066670000000002L117.138,17.066670000000002L116.742,18.40001L114.399,18.40001L112.353,25.2L115.587,25.2L118.656,15.00001L115.422,15.00001L114.795,17.066670000000002ZM127.533,18.00001L130.767,18.00001L131.691,15.00001L128.424,15.00001L127.533,18.00001ZM75.393,18.4L78.627,18.4L75.789,27.7667L72.555,27.7667L75.393,18.4ZM99.351,25.2L102.42,25.2L101.991,26.5333L98.922,26.5333L96.975,33L100.242,33L104.631,18.4L101.397,18.4L99.351,25.2ZM57.441,24L67.176,24L67.539,22.8667L54.537,22.8667L52.656,29.1L54.273,29.1L53.877,30.4333L52.227,30.4333L51.468,33L67.70400000000001,33L68.628,30L55.626,30L57.441,24ZM34.539,24.4333L37.806,24.4333L36.387,29.1L33.120000000000005,29.1L34.539,24.4333ZM43.515,27L44.307,24.4333L41.04,24.4333L40.281,27L43.515,27ZM43.515,27L42.888000000000005,29.1L46.122,29.1L46.782,27L43.515,27ZM16.323,32.9333L13.089,32.9333L15.135,26.1667L18.369,26.1667L16.323,32.9333ZM88.131,30L84.864,30L85.92,26.5333L89.187,26.5333L88.131,30ZM114.135,30L110.901,30L111.924,26.5333L115.191,26.5333L114.135,30L123.903,30L122.979,33L113.244,33L114.135,30ZM124.794,27L128.061,27L127.137,30L123.903,30L124.794,27ZM71.862,30L72.15899999999999,29.1L75.393,29.1L75.12899999999999,30L71.862,30ZM83.973,33L74.205,33L75.12899999999999,30L84.864,30L83.973,33ZM35.199,33L31.965,33L32.724000000000004,30.4333L35.991,30.4333L35.199,33ZM48.201,33L44.967,33L45.726,30.4333L48.993,30.4333L48.201,33ZM18.96301,13.533339999999999L18.963,13.533339999999999L18.468,15.13334L14.64001,15.13334L14.11201,16.6L20.942999999999998,16.6L20.942999999999998,15.13334L20.942999999999998,15.13334L20.942999999999998,16.60001L18.00601,16.60001L17.742,17.5L20.976010000000002,17.5L21.735010000000003,15.033339999999999L31.437,15.033339999999999L29.622,21L32.856,21L34.671,15.03333L31.437,15.03333L32.328,12.0666714L19.39201,12.0666714L18.96301,13.533339999999999ZM12,19.66667L12.297,18.83334L18.831,18.83334L18.831,19.66667L18.83101,18.83334L20.58001,18.83334L19.92001,21L29.622,21L28.731,24L19.02901,24L18.76501,24.8333L15.53101,24.8333L17.08201,19.66667L12,19.66667Z" fill-rule="evenodd" fill="#FFC300" fill-opacity="1"/></g></g></g></svg>