<svg xmlns="http://www.w3.org/2000/svg" xmlns:xlink="http://www.w3.org/1999/xlink" fill="none" version="1.1" width="143.69102478027344" height="45.00000762939453" viewBox="0 0 143.69102478027344 45.00000762939453"><defs><filter id="master_svg0_501_035827" filterUnits="objectBoundingBox" color-interpolation-filters="sRGB" x="-16" y="-16" width="164" height="56"><feFlood flood-opacity="0" result="BackgroundImageFix"/><feBlend mode="normal" in="SourceGraphic" in2="BackgroundImageFix" result="shape"/><feGaussianBlur stdDeviation="4" result="effect1_foregroundBlur"/></filter><clipPath id="master_svg1_501_035827"><rect x="5.829010009765625" y="10.533336639404297" width="132" height="24" rx="0"/></clipPath><clipPath id="master_svg2_501_035863"><rect x="5.829010009765625" y="10.533336639404297" width="132" height="24" rx="0"/></clipPath></defs><g><g filter="url(#master_svg0_501_035827)"><g clip-path="url(#master_svg1_501_035827)"><g><path d="M48.59700381469727,21L38.829003814697266,21L40.644003814697264,15L50.412003814697265,15L50.70900381469727,13.96667L47.442003814697266,13.96667L47.83800381469727,12.633333L51.138003814697264,12.633333L51.30300381469726,12L38.30100381469727,12L34.93500381469727,23.1L47.93700381469726,23.1L48.59700381469727,21ZM48.59700381469727,21.00001L50.412003814697265,15.00001L53.646003814697266,15.00001L51.83100381469727,21.00001L48.59700381469727,21.00001ZM69.12300381469726,13.96667L57.21000381469727,13.96667L54.933003814697265,21.53333L67.93500381469727,21.53333L68.10000381469726,21L58.332003814697266,21L60.147003814697264,15L73.14900381469727,15L74.07300381469727,12L57.80400381469727,12L57.63900381469727,12.633333L69.51900381469727,12.633333L69.12300381469726,13.96667ZM80.57400381469726,12L90.30900381469726,12L89.41800381469727,15L79.65000381469727,15L80.57400381469726,12ZM105.65400381469726,15L112.15500381469727,15L112.48500381469727,13.96667L103.74000381469726,13.96667L104.13600381469726,12.633333L112.88100381469727,12.633333L113.07900381469726,12L96.81000381469727,12L95.91900381469726,15L102.42000381469727,15L101.79300381469727,17.066670000000002L105.02700381469727,17.066670000000002L105.65400381469726,15ZM119.58000381469726,12L119.38200381469727,12.633333L125.81700381469726,12.633333L125.38800381469727,13.96667L118.98600381469727,13.96667L118.65600381469727,15L128.42400381469727,15L129.34800381469728,12L119.58000381469726,12ZM16.257003814697264,13.533339999999999L16.785003814697266,12.0666714L19.392003814697265,12.0666714L18.963003814697267,13.533339999999999L16.257003814697264,13.533339999999999ZM76.41600381469726,15.00001L79.65000381469727,15.00001L79.02300381469726,17.066670000000002L75.78900381469727,17.066670000000002L76.41600381469726,15.00001ZM92.65200381469727,15.00001L89.58300381469726,25.2L86.34900381469727,25.2L89.41800381469727,15.00001L92.65200381469727,15.00001ZM114.79500381469727,17.066670000000002L117.13800381469727,17.066670000000002L116.74200381469727,18.40001L114.39900381469727,18.40001L112.35300381469726,25.2L115.58700381469727,25.2L118.65600381469727,15.00001L115.42200381469726,15.00001L114.79500381469727,17.066670000000002ZM127.53300381469727,18.00001L130.76700381469726,18.00001L131.69100381469727,15.00001L128.42400381469727,15.00001L127.53300381469727,18.00001ZM75.39300381469727,18.4L78.62700381469726,18.4L75.78900381469727,27.7667L72.55500381469727,27.7667L75.39300381469727,18.4ZM99.35100381469726,25.2L102.42000381469727,25.2L101.99100381469727,26.5333L98.92200381469726,26.5333L96.97500381469726,33L100.24200381469727,33L104.63100381469727,18.4L101.39700381469727,18.4L99.35100381469726,25.2ZM57.44100381469727,24L67.17600381469727,24L67.53900381469727,22.8667L54.537003814697265,22.8667L52.656003814697264,29.1L54.27300381469727,29.1L53.87700381469727,30.4333L52.22700381469726,30.4333L51.46800381469727,33L67.70400381469727,33L68.62800381469727,30L55.62600381469726,30L57.44100381469727,24ZM34.53900381469727,24.4333L37.80600381469726,24.4333L36.387003814697266,29.1L33.12000381469727,29.1L34.53900381469727,24.4333ZM43.515003814697266,27L44.30700381469727,24.4333L41.040003814697265,24.4333L40.281003814697264,27L43.515003814697266,27ZM43.515003814697266,27L42.88800381469727,29.1L46.122003814697266,29.1L46.78200381469726,27L43.515003814697266,27ZM16.323003814697266,32.9333L13.089003814697266,32.9333L15.135003814697265,26.1667L18.369003814697265,26.1667L16.323003814697266,32.9333ZM88.13100381469727,30L84.86400381469727,30L85.92000381469727,26.5333L89.18700381469726,26.5333L88.13100381469727,30ZM114.13500381469727,30L110.90100381469726,30L111.92400381469727,26.5333L115.19100381469727,26.5333L114.13500381469727,30L123.90300381469727,30L122.97900381469726,33L113.24400381469727,33L114.13500381469727,30ZM124.79400381469726,27L128.06100381469727,27L127.13700381469727,30L123.90300381469727,30L124.79400381469726,27ZM71.86200381469726,30L72.15900381469726,29.1L75.39300381469727,29.1L75.12900381469726,30L71.86200381469726,30ZM83.97300381469726,33L74.20500381469726,33L75.12900381469726,30L84.86400381469727,30L83.97300381469726,33ZM35.199003814697264,33L31.965003814697265,33L32.72400381469727,30.4333L35.991003814697265,30.4333L35.199003814697264,33ZM48.201003814697266,33L44.967003814697264,33L45.726003814697265,30.4333L48.99300381469727,30.4333L48.201003814697266,33ZM18.963013814697266,13.533339999999999L18.963003814697267,13.533339999999999L18.468003814697266,15.13334L14.640013814697266,15.13334L14.112013814697265,16.6L20.943003814697263,16.6L20.943003814697263,15.13334L20.943003814697263,15.13334L20.943003814697263,16.60001L18.006013814697265,16.60001L17.742003814697267,17.5L20.976013814697268,17.5L21.73501381469727,15.033339999999999L31.437003814697267,15.033339999999999L29.622003814697266,21L32.85600381469727,21L34.671003814697265,15.03333L31.437003814697267,15.03333L32.32800381469727,12.0666714L19.392013814697265,12.0666714L18.963013814697266,13.533339999999999ZM12.000003814697266,19.66667L12.297003814697266,18.83334L18.831003814697265,18.83334L18.831003814697265,19.66667L18.831013814697265,18.83334L20.580013814697267,18.83334L19.920013814697267,21L29.622003814697266,21L28.731003814697267,24L19.029013814697265,24L18.765013814697266,24.8333L15.531013814697266,24.8333L17.082013814697266,19.66667L12.000003814697266,19.66667Z" fill-rule="evenodd" fill="#FFC300" fill-opacity="1"/></g></g></g><g clip-path="url(#master_svg2_501_035863)"><g><path d="M48.59700381469727,21L38.829003814697266,21L40.644003814697264,15L50.412003814697265,15L50.70900381469727,13.96667L47.442003814697266,13.96667L47.83800381469727,12.633333L51.138003814697264,12.633333L51.30300381469726,12L38.30100381469727,12L34.93500381469727,23.1L47.93700381469726,23.1L48.59700381469727,21ZM48.59700381469727,21.00001L50.412003814697265,15.00001L53.646003814697266,15.00001L51.83100381469727,21.00001L48.59700381469727,21.00001ZM69.12300381469726,13.96667L57.21000381469727,13.96667L54.933003814697265,21.53333L67.93500381469727,21.53333L68.10000381469726,21L58.332003814697266,21L60.147003814697264,15L73.14900381469727,15L74.07300381469727,12L57.80400381469727,12L57.63900381469727,12.633333L69.51900381469727,12.633333L69.12300381469726,13.96667ZM80.57400381469726,12L90.30900381469726,12L89.41800381469727,15L79.65000381469727,15L80.57400381469726,12ZM105.65400381469726,15L112.15500381469727,15L112.48500381469727,13.96667L103.74000381469726,13.96667L104.13600381469726,12.633333L112.88100381469727,12.633333L113.07900381469726,12L96.81000381469727,12L95.91900381469726,15L102.42000381469727,15L101.79300381469727,17.066670000000002L105.02700381469727,17.066670000000002L105.65400381469726,15ZM119.58000381469726,12L119.38200381469727,12.633333L125.81700381469726,12.633333L125.38800381469727,13.96667L118.98600381469727,13.96667L118.65600381469727,15L128.42400381469727,15L129.34800381469728,12L119.58000381469726,12ZM16.257003814697264,13.533339999999999L16.785003814697266,12.0666714L19.392003814697265,12.0666714L18.963003814697267,13.533339999999999L16.257003814697264,13.533339999999999ZM76.41600381469726,15.00001L79.65000381469727,15.00001L79.02300381469726,17.066670000000002L75.78900381469727,17.066670000000002L76.41600381469726,15.00001ZM92.65200381469727,15.00001L89.58300381469726,25.2L86.34900381469727,25.2L89.41800381469727,15.00001L92.65200381469727,15.00001ZM114.79500381469727,17.066670000000002L117.13800381469727,17.066670000000002L116.74200381469727,18.40001L114.39900381469727,18.40001L112.35300381469726,25.2L115.58700381469727,25.2L118.65600381469727,15.00001L115.42200381469726,15.00001L114.79500381469727,17.066670000000002ZM127.53300381469727,18.00001L130.76700381469726,18.00001L131.69100381469727,15.00001L128.42400381469727,15.00001L127.53300381469727,18.00001ZM75.39300381469727,18.4L78.62700381469726,18.4L75.78900381469727,27.7667L72.55500381469727,27.7667L75.39300381469727,18.4ZM99.35100381469726,25.2L102.42000381469727,25.2L101.99100381469727,26.5333L98.92200381469726,26.5333L96.97500381469726,33L100.24200381469727,33L104.63100381469727,18.4L101.39700381469727,18.4L99.35100381469726,25.2ZM57.44100381469727,24L67.17600381469727,24L67.53900381469727,22.8667L54.537003814697265,22.8667L52.656003814697264,29.1L54.27300381469727,29.1L53.87700381469727,30.4333L52.22700381469726,30.4333L51.46800381469727,33L67.70400381469727,33L68.62800381469727,30L55.62600381469726,30L57.44100381469727,24ZM34.53900381469727,24.4333L37.80600381469726,24.4333L36.387003814697266,29.1L33.12000381469727,29.1L34.53900381469727,24.4333ZM43.515003814697266,27L44.30700381469727,24.4333L41.040003814697265,24.4333L40.281003814697264,27L43.515003814697266,27ZM43.515003814697266,27L42.88800381469727,29.1L46.122003814697266,29.1L46.78200381469726,27L43.515003814697266,27ZM16.323003814697266,32.9333L13.089003814697266,32.9333L15.135003814697265,26.1667L18.369003814697265,26.1667L16.323003814697266,32.9333ZM88.13100381469727,30L84.86400381469727,30L85.92000381469727,26.5333L89.18700381469726,26.5333L88.13100381469727,30ZM114.13500381469727,30L110.90100381469726,30L111.92400381469727,26.5333L115.19100381469727,26.5333L114.13500381469727,30L123.90300381469727,30L122.97900381469726,33L113.24400381469727,33L114.13500381469727,30ZM124.79400381469726,27L128.06100381469727,27L127.13700381469727,30L123.90300381469727,30L124.79400381469726,27ZM71.86200381469726,30L72.15900381469726,29.1L75.39300381469727,29.1L75.12900381469726,30L71.86200381469726,30ZM83.97300381469726,33L74.20500381469726,33L75.12900381469726,30L84.86400381469727,30L83.97300381469726,33ZM35.199003814697264,33L31.965003814697265,33L32.72400381469727,30.4333L35.991003814697265,30.4333L35.199003814697264,33ZM48.201003814697266,33L44.967003814697264,33L45.726003814697265,30.4333L48.99300381469727,30.4333L48.201003814697266,33ZM18.963013814697266,13.533339999999999L18.963003814697267,13.533339999999999L18.468003814697266,15.13334L14.640013814697266,15.13334L14.112013814697265,16.6L20.943003814697263,16.6L20.943003814697263,15.13334L20.943003814697263,15.13334L20.943003814697263,16.60001L18.006013814697265,16.60001L17.742003814697267,17.5L20.976013814697268,17.5L21.73501381469727,15.033339999999999L31.437003814697267,15.033339999999999L29.622003814697266,21L32.85600381469727,21L34.671003814697265,15.03333L31.437003814697267,15.03333L32.32800381469727,12.0666714L19.392013814697265,12.0666714L18.963013814697266,13.533339999999999ZM12.000003814697266,19.66667L12.297003814697266,18.83334L18.831003814697265,18.83334L18.831003814697265,19.66667L18.831013814697265,18.83334L20.580013814697267,18.83334L19.920013814697267,21L29.622003814697266,21L28.731003814697267,24L19.029013814697265,24L18.765013814697266,24.8333L15.531013814697266,24.8333L17.082013814697266,19.66667L12.000003814697266,19.66667Z" fill-rule="evenodd" fill="#FFC300" fill-opacity="1"/></g></g></g></svg>