<svg xmlns="http://www.w3.org/2000/svg" xmlns:xlink="http://www.w3.org/1999/xlink" fill="none" version="1.1" width="24" height="24" viewBox="0 0 24 24"><defs><clipPath id="master_svg0_97_57881"><rect x="24" y="0" width="24" height="24" rx="0"/></clipPath></defs><g transform="matrix(-1,0,0,1,48,0)" clip-path="url(#master_svg0_97_57881)"><g><path d="M36,19C36,19,34,19,34,19C34,19,34,17,34,17C34,17,32,17,32,17C32,17,32,15,32,15C32,15,30,15,30,15C30,15,30,13,30,13C30,13,28,13,28,13C28,13,28,11,28,11C28,11,30,11,30,11C30,11,30,9,30,9C30,9,32,9,32,9C32,9,32,7,32,7C32,7,34,7,34,7C34,7,34,5,34,5C34,5,36,5,36,5C36,5,36,9,36,9C36,9,44,9,44,9C44,9,44,15,44,15C44,15,36,15,36,15C36,15,36,19,36,19C36,19,36,19,36,19Z" fill="#FFFFFF" fill-opacity="1"/></g></g></svg>