<svg xmlns="http://www.w3.org/2000/svg" xmlns:xlink="http://www.w3.org/1999/xlink" fill="none" version="1.1" width="24" height="24" viewBox="0 0 24 24"><g><g transform="matrix(0,1,1,0,4,-4)"><path d="M9.66666,5.66663L12.33332,5.66663L12.33332,8.33329L9.66666,8.33329L9.66666,5.66663ZM7,3L9.66667,3L9.66667,5.66667L7,5.66667L7,3ZM23,3L25.6667,3L25.6667,5.66667L23,5.66667L23,3ZM12.33333,8.33331L15,8.33331L15,10.99998L12.33333,10.99998L12.33333,8.33331ZM15,11L17.6667,11L17.6667,13.6667L15,13.6667L15,11ZM17.6667,8.33331L20.3333,8.33331L20.3333,10.99998L17.6667,10.99998L17.6667,8.33331ZM20.3333,5.66663L23,5.66663L23,8.33329L20.3333,8.33329L20.3333,5.66663Z" fill="#454A4F" fill-opacity="1"/></g></g></svg>