<svg xmlns="http://www.w3.org/2000/svg" xmlns:xlink="http://www.w3.org/1999/xlink" fill="none" version="1.1" width="18" height="18" viewBox="0 0 18 18"><defs><clipPath id="master_svg0_39_53716"><rect x="0" y="0" width="18" height="18" rx="0"/></clipPath></defs><g clip-path="url(#master_svg0_39_53716)"><g><ellipse cx="8.783968448638916" cy="8.783998966217041" rx="7.767000675201416" ry="7.767000675201416" fill="#50AF95" fill-opacity="1"/></g><g><path d="M9.9720263671875,9.774002197265624C9.9090263671875,9.783002197265624,9.5670263671875,9.801002197265625,8.8020263671875,9.801002197265625C8.1990263671875,9.801002197265625,7.7670263671875,9.783002197265624,7.6140263671875,9.774002197265624C5.2560263671875,9.666002197265625,3.5100263671875,9.261002197265626,3.5100263671875,8.766002197265625C3.5100263671875,8.280002197265624,5.265026367187501,7.866002197265625,7.6050263671875,7.767002197265625L7.6050263671875,9.360002197265626C7.7580263671875,9.369002197265626,8.1990263671875,9.396002197265625,8.8020263671875,9.396002197265625C9.5310263671875,9.396002197265625,9.9000263671875,9.369002197265626,9.9630263671875,9.360002197265626L9.9630263671875,7.767002197265625C12.3030263671875,7.875002197265625,14.0490263671875,8.280002197265624,14.0490263671875,8.766002197265625C14.0490263671875,9.252002197265625,12.3120263671875,9.666002197265625,9.9720263671875,9.774002197265624ZM9.9720263671875,7.605002197265625L9.9720263671875,6.174002197265625L13.2390263671875,6.174002197265625L13.2390263671875,3.996002197265625L4.3380263671875,3.996002197265625L4.3380263671875,6.174002197265625L7.6050263671875,6.174002197265625L7.6050263671875,7.605002197265625C4.9500263671875,7.722002197265625,2.9520263671875,8.253002197265625,2.9520263671875,8.883002197265625C2.9520263671875,9.513002197265624,4.9500263671875,10.035002197265625,7.6050263671875,10.161002197265624L7.6050263671875,14.733002197265625L9.9630263671875,14.733002197265625L9.9630263671875,10.152002197265624C12.6090263671875,10.026002197265626,14.6070263671875,9.504002197265624,14.6070263671875,8.874002197265625C14.6070263671875,8.253002197265625,12.6180263671875,7.722002197265625,9.9720263671875,7.605002197265625Z" fill="#FFFFFF" fill-opacity="1"/></g></g></svg>