<svg xmlns="http://www.w3.org/2000/svg" xmlns:xlink="http://www.w3.org/1999/xlink" fill="none" version="1.1" width="24" height="24" viewBox="0 0 24 24"><defs><clipPath id="master_svg0_19_23580"><rect x="0" y="0" width="24" height="24" rx="0"/></clipPath></defs><g clip-path="url(#master_svg0_19_23580)"><g><path d="M7.3723959765625,4L5.0195359765625,4L5.0195359765625,5.23077L7.3723959765625,5.23077L7.3723959765625,4ZM7.3725559765625,4L9.7254159765625,4L9.7254159765625,5.23077L7.3725559765625,5.23077L7.3725559765625,4ZM12.0783259765625,4L9.7254659765625,4L9.7254659765625,5.23077L12.0783259765625,5.23077L12.0783259765625,4ZM15.6077259765625,4L12.0784959765625,4L12.0784959765625,5.23077L15.6077259765625,5.23077L15.6077259765625,4ZM15.6078259765625,4L17.9606259765625,4L17.9606259765625,5.23077L15.6078259765625,5.23077L15.6078259765625,4ZM19.1373259765625,4L17.9608259765625,4L17.9608259765625,5.23077L19.1373259765625,5.23077L19.1373259765625,4ZM3.8431359765625,6.461539999999999L3.8431359765625,5.23077L5.0196059765625005,5.23077L5.0196059765625005,6.461539999999999L3.8431359765625,6.461539999999999ZM19.1372259765625,7.69229L19.1372259765625,5.23077L20.3136259765625,5.23077L20.3136259765625,7.69229L19.1372259765625,7.69229ZM2.6666259765625,7.69229L2.6666259765625,6.46152L3.8430959765625,6.46152L3.8430959765625,7.69229L2.6666259765625,7.69229ZM2.6666259765625,8.92306L2.6666259765625,7.69229L3.8430959765625,7.69229L3.8430959765625,8.92306L2.6666259765625,8.92306ZM19.1372259765625,7.69229L19.1372259765625,8.92306L20.3136259765625,8.92306L20.3136259765625,7.69229L19.1372259765625,7.69229ZM2.6666259765625,10.15383L2.6666259765625,8.92306L3.8430959765625,8.92306L3.8430959765625,10.15383L2.6666259765625,10.15383ZM14.4312259765625,8.92306L14.4312259765625,10.15383L15.6077259765625,10.15383L15.6077259765625,8.92306L14.4312259765625,8.92306ZM15.6078259765625,10.15383L15.6078259765625,8.92306L17.9606259765625,8.92306L17.9606259765625,10.15383L15.6078259765625,10.15383ZM17.9608259765625,10.15383L17.9608259765625,8.92306L21.4900259765625,8.92306L21.4900259765625,10.15383L17.9608259765625,10.15383ZM2.6666259765625,12.61537L2.6666259765625,10.153839999999999L3.8430959765625,10.153839999999999L3.8430959765625,12.61537L2.6666259765625,12.61537ZM13.2549259765625,10.153839999999999L13.2549259765625,12.61537L14.4313259765625,12.61537L14.4313259765625,10.153839999999999L13.2549259765625,10.153839999999999ZM21.4902259765625,12.61537L21.4902259765625,10.153839999999999L22.6667259765625,10.153839999999999L22.6667259765625,12.61537L21.4902259765625,12.61537ZM16.7842259765625,12.61537L16.7842259765625,11.384599999999999L17.9606259765625,11.384599999999999L17.9606259765625,12.61537L16.7842259765625,12.61537ZM17.9608259765625,12.61537L17.9608259765625,11.384599999999999L19.1373259765625,11.384599999999999L19.1373259765625,12.61537L17.9608259765625,12.61537ZM2.6666259765625,13.84615L2.6666259765625,12.61538L3.8430959765625,12.61538L3.8430959765625,15.0769L2.6666259765625,15.0769L2.6666259765625,13.84615L2.6666259765625,13.84615ZM13.2549259765625,13.84615L13.2549259765625,12.61538L14.4313259765625,12.61538L14.4313259765625,13.84615L15.6077259765625,13.84615L15.6077259765625,15.0769L14.4312259765625,15.0769L14.4312259765625,13.84615L13.2549259765625,13.84615ZM21.4902259765625,13.84615L21.4902259765625,12.61538L22.6667259765625,12.61538L22.6667259765625,13.84615L21.4902259765625,13.84615ZM15.6078259765625,15.0769L15.6078259765625,13.84615L17.9606259765625,13.84615L17.9606259765625,15.0769L15.6078259765625,15.0769ZM17.9608259765625,13.84615L17.9608259765625,15.0769L21.4900259765625,15.0769L21.4900259765625,13.84615L17.9608259765625,13.84615ZM2.6666259765625,15.0769L2.6666259765625,17.5385L3.8430959765625,17.5385L3.8430959765625,15.0769L2.6666259765625,15.0769ZM3.8431359765625,17.5385L3.8431359765625,18.769199999999998L5.0195359765625,18.769199999999998L5.0195359765625,20L7.3723959765625,20L7.3723959765625,18.769199999999998L5.0196059765625005,18.769199999999998L5.0196059765625005,17.5385L3.8431359765625,17.5385ZM19.1372259765625,17.5385L19.1372259765625,18.769199999999998L17.9608259765625,18.769199999999998L17.9608259765625,20L19.1373259765625,20L19.1373259765625,18.769199999999998L20.3136259765625,18.769199999999998L20.3136259765625,17.5385L19.1372259765625,17.5385ZM19.1372259765625,15.0769L19.1372259765625,17.5385L20.3136259765625,17.5385L20.3136259765625,15.0769L19.1372259765625,15.0769ZM9.7254159765625,18.769199999999998L7.3725559765625,18.769199999999998L7.3725559765625,20L9.7254159765625,20L9.7254159765625,18.769199999999998ZM12.0783259765625,18.769199999999998L9.7254659765625,18.769199999999998L9.7254659765625,20L12.0783259765625,20L12.0783259765625,18.769199999999998ZM12.0784959765625,20L12.0784959765625,18.769199999999998L15.6077259765625,18.769199999999998L15.6077259765625,20L12.0784959765625,20ZM15.6078259765625,18.769199999999998L17.9606259765625,18.769199999999998L17.9606259765625,20L15.6078259765625,20L15.6078259765625,18.769199999999998Z" fill-rule="evenodd" fill="#FFFFFF" fill-opacity="1"/></g></g></svg>