<svg xmlns="http://www.w3.org/2000/svg" xmlns:xlink="http://www.w3.org/1999/xlink" fill="none" version="1.1" width="20" height="20" viewBox="0 0 20 20"><defs><clipPath id="master_svg0_772_68168"><rect x="0" y="0" width="20" height="20" rx="0"/></clipPath></defs><g clip-path="url(#master_svg0_772_68168)"><g><path d="M4.18298796875,3.333333969116211L6.14371796875,3.333333969116211L6.14371796875,4.358973969116211L4.18298796875,4.358973969116211L4.18298796875,3.333333969116211ZM14.96726796875,3.333333969116211L15.94766796875,3.333333969116211L15.94766796875,4.358973969116211L14.96726796875,4.358973969116211L14.96726796875,3.333333969116211ZM3.2026369687500003,5.38463396911621L3.2026369687500003,4.358993969116211L4.18302796875,4.358993969116211L4.18302796875,5.38463396911621L3.2026369687500003,5.38463396911621ZM15.94766796875,4.358993969116211L15.94766796875,7.435873969116211L16.92806796875,7.435873969116211L16.92806796875,4.358993969116211L15.94766796875,4.358993969116211ZM2.22216796875,7.435873969116211L2.22216796875,5.384593969116211L3.20255796875,5.384593969116211L3.20255796875,7.435873969116211L2.22216796875,7.435873969116211ZM2.22216796875,8.46153396911621L2.22216796875,7.435893969116211L3.20255796875,7.435893969116211L3.20255796875,11.53844396911621L2.22216796875,11.53844396911621L2.22216796875,8.46153396911621L2.22216796875,8.46153396911621ZM14.96726796875,8.46153396911621L14.96726796875,7.435893969116211L17.90836796875,7.435893969116211L17.90836796875,8.46153396911621L14.96726796875,8.46153396911621ZM17.90856796875,8.46153396911621L17.90856796875,11.53844396911621L18.88896796875,11.53844396911621L18.88896796875,8.46153396911621L17.90856796875,8.46153396911621ZM13.98676796875,9.48716396911621L13.98676796875,10.512803969116211L14.96716796875,10.512803969116211L14.96716796875,9.48716396911621L13.98676796875,9.48716396911621ZM14.96726796875,10.512803969116211L14.96726796875,9.48716396911621L15.94766796875,9.48716396911621L15.94766796875,10.512803969116211L14.96726796875,10.512803969116211ZM2.22216796875,11.538463969116211L2.22216796875,14.615333969116211L3.20255796875,14.615333969116211L3.20255796875,11.538463969116211L2.22216796875,11.538463969116211ZM12.02612796875,12.56410396911621L12.02612796875,11.538463969116211L14.96716796875,11.538463969116211L14.96716796875,12.56410396911621L12.02612796875,12.56410396911621ZM14.96726796875,12.56410396911621L14.96726796875,11.538463969116211L17.90836796875,11.538463969116211L17.90836796875,12.56410396911621L16.92806796875,12.56410396911621L16.92806796875,14.615333969116211L15.94766796875,14.615333969116211L15.94766796875,12.56410396911621L14.96726796875,12.56410396911621ZM3.2026369687500003,15.641033969116211L3.2026369687500003,14.61543396911621L4.18302796875,14.61543396911621L4.18302796875,15.641033969116211L6.14371796875,15.641033969116211L6.14371796875,16.66673396911621L4.18298796875,16.66673396911621L4.18298796875,15.641033969116211L3.2026369687500003,15.641033969116211ZM15.94766796875,15.641033969116211L15.94766796875,14.61543396911621L16.92806796875,14.61543396911621L16.92806796875,15.641033969116211L15.94766796875,15.641033969116211L15.94766796875,16.66673396911621L14.96726796875,16.66673396911621L14.96726796875,15.641033969116211L15.94766796875,15.641033969116211ZM7.12414796875,15.641033969116211L6.14379796875,15.641033969116211L6.14379796875,16.66673396911621L10.065227968750001,16.66673396911621L10.065227968750001,15.641033969116211L7.12414796875,15.641033969116211ZM8.10448796875,3.333333969116211L6.14379796875,3.333333969116211L6.14379796875,4.358973969116211L8.10448796875,4.358973969116211L10.065227968750001,4.358973969116211L10.065227968750001,3.333333969116211L8.10453796875,3.333333969116211L8.10448796875,3.333333969116211ZM12.02612796875,3.333333969116211L10.06542796875,3.333333969116211L10.06542796875,4.358973969116211L12.02612796875,4.358973969116211L14.96716796875,4.358973969116211L14.96716796875,3.333333969116211L12.02616796875,3.333333969116211L12.02612796875,3.333333969116211ZM12.02612796875,8.46153396911621L12.02612796875,7.435893969116211L14.96716796875,7.435893969116211L14.96716796875,8.46153396911621L12.02616796875,8.46153396911621L12.02616796875,8.46153396911621L12.02616796875,11.53844396911621L11.04577796875,11.53844396911621L11.04577796875,8.46153396911621L12.02612796875,8.46153396911621L12.02612796875,8.46153396911621ZM11.04577796875,15.641033969116211L10.06542796875,15.641033969116211L10.06542796875,16.66673396911621L13.00646796875,16.66673396911621L13.00646796875,16.66673396911621L14.96716796875,16.66673396911621L14.96716796875,15.641033969116211L13.00646796875,15.641033969116211L11.04581796875,15.641033969116211L11.04577796875,15.641033969116211Z" fill-rule="evenodd" fill="#000000" fill-opacity="1"/></g></g></svg>