<svg xmlns="http://www.w3.org/2000/svg" xmlns:xlink="http://www.w3.org/1999/xlink" fill="none" version="1.1" width="88" height="16" viewBox="0 0 88 16"><defs><clipPath id="master_svg0_866_26297"><rect x="0" y="0" width="88" height="16" rx="0"/></clipPath></defs><g clip-path="url(#master_svg0_866_26297)"><g><path d="M28.51199459838867,6.977771759033203L21.99999459838867,6.977771759033203L23.209994598388672,2.977771759033203L29.721994598388672,2.977771759033203L28.51199459838867,6.977771759033203ZM28.51199459838867,6.977771759033203L30.66799459838867,6.977771759033203L31.87799459838867,2.977771759033203L29.721994598388672,2.977771759033203L29.919994598388673,2.2888817590332033L27.741994598388672,2.2888817590332033L28.00599459838867,1.3999937590332032L30.20599459838867,1.3999937590332032L30.315994598388674,0.9777717590332031L21.64799459838867,0.9777717590332031L19.40399459838867,8.377771759033203L28.07199459838867,8.377771759033203L28.51199459838867,6.977771759033203ZM42.19599459838867,2.2888817590332033L34.25399459838867,2.2888817590332033L32.73599459838867,7.333331759033203L41.40399459838867,7.333331759033203L41.51399459838867,6.977771759033203L35.00199459838868,6.977771759033203L36.21199459838867,2.977771759033203L44.87999459838867,2.977771759033203L45.49599459838867,0.9777717590332031L34.64999459838867,0.9777717590332031L34.539994598388674,1.3999937590332032L42.45999459838867,1.3999937590332032L42.19599459838867,2.2888817590332033ZM49.82999459838867,0.9777717590332031L56.319994598388675,0.9777717590332031L55.725994598388674,2.977771759033203L49.21399459838867,2.977771759033203L49.82999459838867,0.9777717590332031ZM55.725994598388674,2.977771759033203L57.88199459838867,2.977771759033203L55.83599459838867,9.777771759033204L53.679994598388674,9.777771759033204L55.725994598388674,2.977771759033203ZM66.54999459838868,2.977771759033203L70.88399459838867,2.977771759033203L71.10399459838867,2.2888817590332033L65.27399459838867,2.2888817590332033L65.53799459838868,1.3999937590332032L71.36799459838868,1.3999937590332032L71.49999459838867,0.9777717590332031L60.65399459838867,0.9777717590332031L60.05999459838867,2.977771759033203L64.39399459838867,2.977771759033203L63.975994598388674,4.355551759033203L66.13199459838867,4.355551759033203L66.54999459838868,2.977771759033203ZM75.70199459838867,1.3999937590332032L75.83399459838867,0.9777717590332031L82.34599459838867,0.9777717590332031L81.72999459838867,2.977771759033203L83.90799459838867,2.977771759033203L83.29199459838867,4.977771759033203L81.13599459838868,4.977771759033203L81.72999459838867,2.977771759033203L75.21799459838867,2.977771759033203L75.43799459838867,2.2888817590332033L79.70599459838867,2.2888817590332033L79.99199459838867,1.3999937590332032L75.70199459838867,1.3999937590332032ZM75.21799459838867,2.977771759033203L73.17199459838868,9.777771759033204L71.01599459838867,9.777771759033204L72.37999459838868,5.2444417590332035L73.94199459838867,5.2444417590332035L74.20599459838867,4.355551759033203L72.64399459838867,4.355551759033203L73.06199459838867,2.977771759033203L75.21799459838867,2.977771759033203ZM47.057994598388674,2.977771759033203L49.21399459838867,2.977771759033203L48.795994598388674,4.355551759033203L46.639994598388675,4.355551759033203L47.057994598388674,2.977771759033203ZM19.227994598388673,2.999991759033203L17.07199459838867,2.999991759033203L15.861994598388671,6.9777617590332035L18.017994598388672,6.9777617590332035L19.227994598388673,2.999991759033203ZM46.37599459838867,5.244431759033203L48.53199459838867,5.244431759033203L46.639994598388675,11.488871759033204L44.48399459838867,11.488871759033204L46.37599459838867,5.244431759033203ZM62.347994598388674,9.777771759033204L64.39399459838867,9.777771759033204L64.10799459838867,10.666651759033202L62.06199459838867,10.666651759033202L60.76399459838867,14.977771759033203L62.941994598388675,14.977771759033203L65.86799459838866,5.244431759033203L63.71199459838867,5.244431759033203L62.347994598388674,9.777771759033204ZM34.40799459838867,8.977771759033203L40.89799459838867,8.977771759033203L41.139994598388675,8.222221759033204L32.471994598388676,8.222221759033204L31.21799459838867,12.377771759033203L32.295994598388674,12.377771759033203L32.03199459838867,13.266671759033203L30.931994598388673,13.266671759033203L30.425994598388673,14.977771759033203L41.249994598388675,14.977771759033203L41.865994598388674,12.977771759033203L33.197994598388675,12.977771759033203L34.40799459838867,8.977771759033203ZM19.13999459838867,9.266651759033204L21.317994598388673,9.266651759033204L20.37199459838867,12.377771759033203L18.19399459838867,12.377771759033203L19.13999459838867,9.266651759033204ZM25.651994598388672,9.266651759033204L25.123994598388673,10.977761759033204L22.96799459838867,10.977761759033204L23.47399459838867,9.266651759033204L25.651994598388672,9.266651759033204ZM6.996004598388672,14.933271759033204L4.840000598388672,14.933271759033204L6.204004598388671,10.422171759033203L8.360004598388672,10.422171759033203L6.996004598388672,14.933271759033204ZM54.86799459838867,12.977771759033203L52.68999459838867,12.977771759033203L53.39399459838867,10.666671759033203L55.57199459838867,10.666671759033203L54.86799459838867,12.977771759033203ZM52.68999459838867,12.977771759033203L52.09599459838867,14.977771759033203L45.58399459838867,14.977771759033203L46.19999459838867,12.977771759033203L52.68999459838867,12.977771759033203ZM72.20399459838868,12.977771759033203L70.04799459838867,12.977771759033203L70.72999459838867,10.666671759033203L72.90799459838867,10.666671759033203L72.20399459838868,12.977771759033203L78.71599459838868,12.977771759033203L78.09999459838868,14.977771759033203L71.60999459838867,14.977771759033203L72.20399459838868,12.977771759033203ZM78.71599459838868,12.977771759033203L79.30999459838867,10.977771759033203L81.48799459838867,10.977771759033203L80.87199459838867,12.977771759033203L78.71599459838868,12.977771759033203ZM26.861994598388673,12.377771759033203L27.30199459838867,10.977771759033203L25.123994598388673,10.977771759033203L24.70599459838867,12.377771759033203L26.861994598388673,12.377771759033203ZM44.02199459838867,12.977771759033203L44.21999459838867,12.377771759033203L46.37599459838867,12.377771759033203L46.19999459838867,12.977771759033203L44.02199459838867,12.977771759033203ZM19.579994598388673,14.977771759033203L17.423994598388674,14.977771759033203L17.929994598388674,13.266671759033203L20.10799459838867,13.266671759033203L19.579994598388673,14.977771759033203ZM28.247994598388672,14.977771759033203L26.091994598388673,14.977771759033203L26.597994598388674,13.266671759033203L28.77599459838867,13.266671759033203L28.247994598388672,14.977771759033203ZM6.951994598388672,1.9999817590332032L7.303994598388671,1.0222053590332032L9.041994598388673,1.0222053590332032L8.755994598388671,1.9999817590332032L6.951994598388672,1.9999817590332032ZM10.604004598388672,2.999981759033203L17.07199459838867,2.999981759033203L17.66599459838867,1.0222053590332032L9.042004598388672,1.0222053590332032L8.756004598388671,1.9999817590332032L8.756004598388671,1.9999817590332032L8.426004598388673,3.066651759033203L10.076004598388671,3.066651759033203L10.076004598388671,4.044431759033204L10.075994598388672,3.066701759033203L5.874004598388672,3.066701759033203L5.522004598388672,4.044481759033204L8.117984598388672,4.044481759033204L7.942004598388672,4.644431759033203L10.098004598388671,4.644431759033203L10.604004598388672,2.999981759033203ZM4.113994598388672,6.088931759033203L4.311994598388672,5.533371759033203L8.668004598388672,5.533371759033203L8.668004598388672,6.088931759033203L8.668004598388672,5.533371759033203L9.834004598388672,5.533371759033203L9.394004598388673,6.977821759033203L15.861994598388671,6.977821759033203L15.267994598388672,8.977821759033203L8.800004598388671,8.977821759033203L8.624004598388673,9.533371759033203L6.4680045983886725,9.533371759033203L7.502004598388671,6.088931759033203L4.113994598388672,6.088931759033203Z" fill-rule="evenodd" fill="#FFFFFF" fill-opacity="1"/></g></g></svg>